<svg width="126" height="125" viewBox="0 0 126 125" fill="none" xmlns="http://www.w3.org/2000/svg">
<path d="M63.1 125C97.673 125 125.7 96.973 125.7 62.4C125.7 27.827 97.673 -0.199997 63.1 -0.199997C28.527 -0.199997 0.5 27.827 0.5 62.4C0.5 96.973 28.527 125 63.1 125Z" fill="#EF7C46"/>
<path d="M10.2 60.8C11 43.6 25.5 30.3 42.7 31C57.6 31.7 69.5 42.6 72 56.7L53.4 59.4C52.3 53.9 47.5 49.7 41.6 49.4C34.7 49.1 28.8 54.5 28.5 61.4C28.2 68.3 33.6 74.2 40.5 74.5C43.6 74.6 46.9 73.3 49.2 71.5L58.8 86.9C53.2 91.2 47.6 93.6 39.9 93.3C22.8 92.5 9.5 78 10.2 60.8Z" fill="white"/>
<path d="M72.5 61L72.9 63.4C73.4 69 77.6 73.8 83.4 74.7C90.3 75.8 96.7 71.2 97.8 64.3C98.9 57.4 94.3 51 87.4 49.9C84.3 49.4 78.7 50.6 76.1 52.5L68.3 36.1C74.4 32.5 82.5 30.1 90.1 31.4C107.1 34.2 118.6 50.2 115.9 67.2C113.1 84.2 97.1 95.7 80.1 93C65.4 90.6 54.8 78.3 54 64.1L72.5 61Z" fill="white"/>
</svg>
